<?xml version="1.0" encoding="UTF-8" standalone="no"?>
<!DOCTYPE svg PUBLIC "-//W3C//DTD SVG 1.1//EN"
 "http://www.w3.org/Graphics/SVG/1.1/DTD/svg11.dtd">
<!-- Generated by graphviz version 2.46.1 (20210213.1702)
 -->
<!-- Pages: 1 -->
<svg width="303pt" height="676pt"
 viewBox="0.00 0.00 302.89 675.99" xmlns="http://www.w3.org/2000/svg" xmlns:xlink="http://www.w3.org/1999/xlink">
<g id="graph0" class="graph" transform="scale(1 1) rotate(0) translate(4 671.99)">
<polygon fill="white" stroke="transparent" points="-4,4 -4,-671.99 298.89,-671.99 298.89,4 -4,4"/>
<!-- fake -->
<g id="node1" class="node">
<title>fake</title>
</g>
<!-- {&#39;q0&#39;} -->
<g id="node4" class="node">
<title>{&#39;q0&#39;}</title>
<ellipse fill="none" stroke="black" cx="238.89" cy="-576.99" rx="32.49" ry="18"/>
<text text-anchor="middle" x="238.89" y="-573.29" font-family="Times New Roman,serif" font-size="14.00">{&#39;q0&#39;}</text>
</g>
<!-- fake&#45;&gt;{&#39;q0&#39;} -->
<g id="edge1" class="edge">
<title>fake&#45;&gt;{&#39;q0&#39;}</title>
<path fill="none" stroke="black" stroke-width="2" d="M238.89,-631.81C238.89,-623.78 238.89,-614.04 238.89,-605.06"/>
<polygon fill="black" stroke="black" stroke-width="2" points="242.39,-605.02 238.89,-595.02 235.39,-605.02 242.39,-605.02"/>
</g>
<!-- {&#39;q1&#39;, &#39;q0&#39;} -->
<g id="node2" class="node">
<title>{&#39;q1&#39;, &#39;q0&#39;}</title>
<ellipse fill="none" stroke="black" cx="198.89" cy="-489.99" rx="50.89" ry="18"/>
<text text-anchor="middle" x="198.89" y="-486.29" font-family="Times New Roman,serif" font-size="14.00">{&#39;q1&#39;, &#39;q0&#39;}</text>
</g>
<!-- {&#39;q1&#39;, &#39;q2&#39;} -->
<g id="node6" class="node">
<title>{&#39;q1&#39;, &#39;q2&#39;}</title>
<ellipse fill="none" stroke="black" cx="157.89" cy="-315.99" rx="50.89" ry="18"/>
<text text-anchor="middle" x="157.89" y="-312.29" font-family="Times New Roman,serif" font-size="14.00">{&#39;q1&#39;, &#39;q2&#39;}</text>
</g>
<!-- {&#39;q1&#39;, &#39;q0&#39;}&#45;&gt;{&#39;q1&#39;, &#39;q2&#39;} -->
<g id="edge5" class="edge">
<title>{&#39;q1&#39;, &#39;q0&#39;}&#45;&gt;{&#39;q1&#39;, &#39;q2&#39;}</title>
<path fill="none" stroke="black" d="M194.81,-471.87C187.66,-441.87 172.81,-379.57 164.29,-343.81"/>
<polygon fill="black" stroke="black" points="167.68,-342.96 161.96,-334.05 160.87,-344.58 167.68,-342.96"/>
<text text-anchor="middle" x="186.89" y="-399.29" font-family="Times New Roman,serif" font-size="14.00">b</text>
</g>
<!-- {&#39;q1&#39;, &#39;q2&#39;, &#39;q0&#39;} -->
<g id="node8" class="node">
<title>{&#39;q1&#39;, &#39;q2&#39;, &#39;q0&#39;}</title>
<ellipse fill="none" stroke="black" cx="68.89" cy="-402.99" rx="68.79" ry="18"/>
<text text-anchor="middle" x="68.89" y="-399.29" font-family="Times New Roman,serif" font-size="14.00">{&#39;q1&#39;, &#39;q2&#39;, &#39;q0&#39;}</text>
</g>
<!-- {&#39;q1&#39;, &#39;q0&#39;}&#45;&gt;{&#39;q1&#39;, &#39;q2&#39;, &#39;q0&#39;} -->
<g id="edge4" class="edge">
<title>{&#39;q1&#39;, &#39;q0&#39;}&#45;&gt;{&#39;q1&#39;, &#39;q2&#39;, &#39;q0&#39;}</title>
<path fill="none" stroke="black" d="M175.65,-473.8C155.06,-460.33 124.77,-440.53 101.71,-425.45"/>
<polygon fill="black" stroke="black" points="103.54,-422.47 93.26,-419.92 99.71,-428.33 103.54,-422.47"/>
<text text-anchor="middle" x="145.39" y="-442.79" font-family="Times New Roman,serif" font-size="14.00">a</text>
</g>
<!-- {&#39;q1&#39;} -->
<g id="node3" class="node">
<title>{&#39;q1&#39;}</title>
<ellipse fill="none" stroke="black" cx="157.89" cy="-228.99" rx="32.49" ry="18"/>
<text text-anchor="middle" x="157.89" y="-225.29" font-family="Times New Roman,serif" font-size="14.00">{&#39;q1&#39;}</text>
</g>
<!-- {&#39;q1&#39;}&#45;&gt;{&#39;q1&#39;} -->
<g id="edge15" class="edge">
<title>{&#39;q1&#39;}&#45;&gt;{&#39;q1&#39;}</title>
<path fill="none" stroke="black" d="M187.21,-236.83C198.75,-237.23 208.39,-234.61 208.39,-228.99 208.39,-225.13 203.83,-222.69 197.23,-221.67"/>
<polygon fill="black" stroke="black" points="197.37,-218.17 187.21,-221.16 197.02,-225.16 197.37,-218.17"/>
<text text-anchor="middle" x="212.39" y="-225.29" font-family="Times New Roman,serif" font-size="14.00">b</text>
</g>
<!-- {&#39;q2&#39;} -->
<g id="node5" class="node">
<title>{&#39;q2&#39;}</title>
<ellipse fill="none" stroke="black" cx="222.89" cy="-141.99" rx="32.49" ry="18"/>
<text text-anchor="middle" x="222.89" y="-138.29" font-family="Times New Roman,serif" font-size="14.00">{&#39;q2&#39;}</text>
</g>
<!-- {&#39;q1&#39;}&#45;&gt;{&#39;q2&#39;} -->
<g id="edge14" class="edge">
<title>{&#39;q1&#39;}&#45;&gt;{&#39;q2&#39;}</title>
<path fill="none" stroke="black" d="M170.12,-212.01C179.83,-199.3 193.57,-181.34 204.6,-166.92"/>
<polygon fill="black" stroke="black" points="207.43,-168.98 210.72,-158.91 201.87,-164.73 207.43,-168.98"/>
<text text-anchor="middle" x="198.39" y="-181.79" font-family="Times New Roman,serif" font-size="14.00">a</text>
</g>
<!-- {&#39;q0&#39;}&#45;&gt;{&#39;q1&#39;, &#39;q0&#39;} -->
<g id="edge2" class="edge">
<title>{&#39;q0&#39;}&#45;&gt;{&#39;q1&#39;, &#39;q0&#39;}</title>
<path fill="none" stroke="black" d="M230.99,-559.2C225.38,-547.29 217.75,-531.06 211.33,-517.42"/>
<polygon fill="black" stroke="black" points="214.34,-515.6 206.92,-508.04 208.01,-518.58 214.34,-515.6"/>
<text text-anchor="middle" x="225.39" y="-529.79" font-family="Times New Roman,serif" font-size="14.00">a</text>
</g>
<!-- {&#39;q0&#39;}&#45;&gt;{&#39;q2&#39;} -->
<g id="edge3" class="edge">
<title>{&#39;q0&#39;}&#45;&gt;{&#39;q2&#39;}</title>
<path fill="none" stroke="black" d="M253.82,-560.84C267.91,-544.86 286.89,-518.28 286.89,-490.99 286.89,-490.99 286.89,-490.99 286.89,-227.99 286.89,-201.88 267.38,-178.69 249.91,-163.16"/>
<polygon fill="black" stroke="black" points="252,-160.34 242.1,-156.58 247.49,-165.7 252,-160.34"/>
<text text-anchor="middle" x="290.89" y="-355.79" font-family="Times New Roman,serif" font-size="14.00">b</text>
</g>
<!-- {&#39;q3&#39;} -->
<g id="node7" class="node">
<title>{&#39;q3&#39;}</title>
<ellipse fill="none" stroke="black" cx="97.89" cy="-36.5" rx="32.49" ry="32.49"/>
<ellipse fill="none" stroke="black" cx="97.89" cy="-36.5" rx="36.49" ry="36.49"/>
<text text-anchor="middle" x="97.89" y="-32.8" font-family="Times New Roman,serif" font-size="14.00">{&#39;q3&#39;}</text>
</g>
<!-- {&#39;q2&#39;}&#45;&gt;{&#39;q3&#39;} -->
<g id="edge6" class="edge">
<title>{&#39;q2&#39;}&#45;&gt;{&#39;q3&#39;}</title>
<path fill="none" stroke="black" d="M205.51,-126.6C186.95,-111.23 157.02,-86.45 133.43,-66.92"/>
<polygon fill="black" stroke="black" points="135.63,-64.2 125.69,-60.51 131.16,-69.59 135.63,-64.2"/>
<text text-anchor="middle" x="182.39" y="-94.79" font-family="Times New Roman,serif" font-size="14.00">c</text>
</g>
<!-- {&#39;q1&#39;, &#39;q2&#39;}&#45;&gt;{&#39;q1&#39;} -->
<g id="edge12" class="edge">
<title>{&#39;q1&#39;, &#39;q2&#39;}&#45;&gt;{&#39;q1&#39;}</title>
<path fill="none" stroke="black" d="M157.89,-297.79C157.89,-286.16 157.89,-270.54 157.89,-257.23"/>
<polygon fill="black" stroke="black" points="161.39,-257.17 157.89,-247.17 154.39,-257.17 161.39,-257.17"/>
<text text-anchor="middle" x="161.89" y="-268.79" font-family="Times New Roman,serif" font-size="14.00">b</text>
</g>
<!-- {&#39;q1&#39;, &#39;q2&#39;}&#45;&gt;{&#39;q2&#39;} -->
<g id="edge10" class="edge">
<title>{&#39;q1&#39;, &#39;q2&#39;}&#45;&gt;{&#39;q2&#39;}</title>
<path fill="none" stroke="black" d="M180.28,-299.76C196.05,-287.57 215.91,-268.92 224.89,-246.99 235.02,-222.3 232.78,-191.45 229.09,-169.78"/>
<polygon fill="black" stroke="black" points="232.52,-169.12 227.2,-159.95 225.65,-170.43 232.52,-169.12"/>
<text text-anchor="middle" x="236.39" y="-225.29" font-family="Times New Roman,serif" font-size="14.00">a</text>
</g>
<!-- {&#39;q1&#39;, &#39;q2&#39;}&#45;&gt;{&#39;q3&#39;} -->
<g id="edge11" class="edge">
<title>{&#39;q1&#39;, &#39;q2&#39;}&#45;&gt;{&#39;q3&#39;}</title>
<path fill="none" stroke="black" d="M144.96,-298.44C135.44,-285.28 123.12,-265.99 116.89,-246.99 99.15,-192.81 95.98,-126.79 96.21,-83.53"/>
<polygon fill="black" stroke="black" points="99.71,-83.36 96.33,-73.32 92.71,-83.27 99.71,-83.36"/>
<text text-anchor="middle" x="107.39" y="-181.79" font-family="Times New Roman,serif" font-size="14.00">c</text>
</g>
<!-- {&#39;q3&#39;}&#45;&gt;{&#39;q3&#39;} -->
<g id="edge13" class="edge">
<title>{&#39;q3&#39;}&#45;&gt;{&#39;q3&#39;}</title>
<path fill="none" stroke="black" d="M132.75,-47.74C143.73,-47.57 152.39,-43.82 152.39,-36.5 152.39,-31.69 148.66,-28.42 142.99,-26.7"/>
<polygon fill="black" stroke="black" points="143.14,-23.18 132.75,-25.25 142.16,-30.12 143.14,-23.18"/>
<text text-anchor="middle" x="155.89" y="-32.8" font-family="Times New Roman,serif" font-size="14.00">c</text>
</g>
<!-- {&#39;q1&#39;, &#39;q2&#39;, &#39;q0&#39;}&#45;&gt;{&#39;q1&#39;, &#39;q2&#39;} -->
<g id="edge9" class="edge">
<title>{&#39;q1&#39;, &#39;q2&#39;, &#39;q0&#39;}&#45;&gt;{&#39;q1&#39;, &#39;q2&#39;}</title>
<path fill="none" stroke="black" d="M86.48,-385.2C99.94,-372.35 118.66,-354.47 133.56,-340.24"/>
<polygon fill="black" stroke="black" points="136.14,-342.61 140.95,-333.18 131.3,-337.55 136.14,-342.61"/>
<text text-anchor="middle" x="122.89" y="-355.79" font-family="Times New Roman,serif" font-size="14.00">b</text>
</g>
<!-- {&#39;q1&#39;, &#39;q2&#39;, &#39;q0&#39;}&#45;&gt;{&#39;q3&#39;} -->
<g id="edge8" class="edge">
<title>{&#39;q1&#39;, &#39;q2&#39;, &#39;q0&#39;}&#45;&gt;{&#39;q3&#39;}</title>
<path fill="none" stroke="black" d="M66,-384.79C63.37,-367.66 59.89,-340.59 59.89,-316.99 59.89,-316.99 59.89,-316.99 59.89,-140.99 59.89,-119.22 67.4,-96.35 75.74,-77.67"/>
<polygon fill="black" stroke="black" points="78.92,-79.12 80.01,-68.58 72.59,-76.15 78.92,-79.12"/>
<text text-anchor="middle" x="63.39" y="-225.29" font-family="Times New Roman,serif" font-size="14.00">c</text>
</g>
<!-- {&#39;q1&#39;, &#39;q2&#39;, &#39;q0&#39;}&#45;&gt;{&#39;q1&#39;, &#39;q2&#39;, &#39;q0&#39;} -->
<g id="edge7" class="edge">
<title>{&#39;q1&#39;, &#39;q2&#39;, &#39;q0&#39;}&#45;&gt;{&#39;q1&#39;, &#39;q2&#39;, &#39;q0&#39;}</title>
<path fill="none" stroke="black" d="M131.38,-410.68C145.48,-409.98 155.79,-407.42 155.79,-402.99 155.79,-399.71 150.11,-397.45 141.42,-396.22"/>
<polygon fill="black" stroke="black" points="141.66,-392.73 131.38,-395.31 141.03,-399.7 141.66,-392.73"/>
<text text-anchor="middle" x="159.29" y="-399.29" font-family="Times New Roman,serif" font-size="14.00">a</text>
</g>
</g>
</svg>
