<?xml version="1.0" encoding="UTF-8" standalone="no"?>
<!DOCTYPE svg PUBLIC "-//W3C//DTD SVG 1.1//EN"
 "http://www.w3.org/Graphics/SVG/1.1/DTD/svg11.dtd">
<!-- Generated by graphviz version 2.46.1 (20210213.1702)
 -->
<!-- Pages: 1 -->
<svg width="303pt" height="676pt"
 viewBox="0.00 0.00 302.89 675.99" xmlns="http://www.w3.org/2000/svg" xmlns:xlink="http://www.w3.org/1999/xlink">
<g id="graph0" class="graph" transform="scale(1 1) rotate(0) translate(4 671.99)">
<polygon fill="white" stroke="transparent" points="-4,4 -4,-671.99 298.89,-671.99 298.89,4 -4,4"/>
<!-- fake -->
<g id="node1" class="node">
<title>fake</title>
</g>
<!-- {&#39;q0&#39;} -->
<g id="node8" class="node">
<title>{&#39;q0&#39;}</title>
<ellipse fill="none" stroke="black" cx="247.89" cy="-576.99" rx="32.49" ry="18"/>
<text text-anchor="middle" x="247.89" y="-573.29" font-family="Times New Roman,serif" font-size="14.00">{&#39;q0&#39;}</text>
</g>
<!-- fake&#45;&gt;{&#39;q0&#39;} -->
<g id="edge1" class="edge">
<title>fake&#45;&gt;{&#39;q0&#39;}</title>
<path fill="none" stroke="black" stroke-width="2" d="M247.89,-631.81C247.89,-623.78 247.89,-614.04 247.89,-605.06"/>
<polygon fill="black" stroke="black" stroke-width="2" points="251.39,-605.02 247.89,-595.02 244.39,-605.02 251.39,-605.02"/>
</g>
<!-- {&#39;q2&#39;, &#39;q1&#39;} -->
<g id="node2" class="node">
<title>{&#39;q2&#39;, &#39;q1&#39;}</title>
<ellipse fill="none" stroke="black" cx="143.89" cy="-315.99" rx="50.89" ry="18"/>
<text text-anchor="middle" x="143.89" y="-312.29" font-family="Times New Roman,serif" font-size="14.00">{&#39;q2&#39;, &#39;q1&#39;}</text>
</g>
<!-- {&#39;q2&#39;} -->
<g id="node3" class="node">
<title>{&#39;q2&#39;}</title>
<ellipse fill="none" stroke="black" cx="177.89" cy="-141.99" rx="32.49" ry="18"/>
<text text-anchor="middle" x="177.89" y="-138.29" font-family="Times New Roman,serif" font-size="14.00">{&#39;q2&#39;}</text>
</g>
<!-- {&#39;q2&#39;, &#39;q1&#39;}&#45;&gt;{&#39;q2&#39;} -->
<g id="edge11" class="edge">
<title>{&#39;q2&#39;, &#39;q1&#39;}&#45;&gt;{&#39;q2&#39;}</title>
<path fill="none" stroke="black" d="M143.99,-297.85C144.42,-277.06 146.19,-241.07 152.89,-210.99 156.07,-196.75 161.5,-181.46 166.49,-168.99"/>
<polygon fill="black" stroke="black" points="169.76,-170.24 170.34,-159.66 163.29,-167.57 169.76,-170.24"/>
<text text-anchor="middle" x="156.39" y="-225.29" font-family="Times New Roman,serif" font-size="14.00">a</text>
</g>
<!-- {&#39;q3&#39;} -->
<g id="node4" class="node">
<title>{&#39;q3&#39;}</title>
<ellipse fill="none" stroke="black" cx="97.89" cy="-36.5" rx="32.49" ry="32.49"/>
<ellipse fill="none" stroke="black" cx="97.89" cy="-36.5" rx="36.49" ry="36.49"/>
<text text-anchor="middle" x="97.89" y="-32.8" font-family="Times New Roman,serif" font-size="14.00">{&#39;q3&#39;}</text>
</g>
<!-- {&#39;q2&#39;, &#39;q1&#39;}&#45;&gt;{&#39;q3&#39;} -->
<g id="edge10" class="edge">
<title>{&#39;q2&#39;, &#39;q1&#39;}&#45;&gt;{&#39;q3&#39;}</title>
<path fill="none" stroke="black" d="M141.02,-297.64C133.99,-255.26 115.79,-145.44 105.42,-82.88"/>
<polygon fill="black" stroke="black" points="108.85,-82.18 103.76,-72.89 101.94,-83.32 108.85,-82.18"/>
<text text-anchor="middle" x="127.39" y="-181.79" font-family="Times New Roman,serif" font-size="14.00">c</text>
</g>
<!-- {&#39;q1&#39;} -->
<g id="node5" class="node">
<title>{&#39;q1&#39;}</title>
<ellipse fill="none" stroke="black" cx="200.89" cy="-228.99" rx="32.49" ry="18"/>
<text text-anchor="middle" x="200.89" y="-225.29" font-family="Times New Roman,serif" font-size="14.00">{&#39;q1&#39;}</text>
</g>
<!-- {&#39;q2&#39;, &#39;q1&#39;}&#45;&gt;{&#39;q1&#39;} -->
<g id="edge12" class="edge">
<title>{&#39;q2&#39;, &#39;q1&#39;}&#45;&gt;{&#39;q1&#39;}</title>
<path fill="none" stroke="black" d="M155.16,-298.2C163.46,-285.82 174.89,-268.77 184.25,-254.82"/>
<polygon fill="black" stroke="black" points="187.38,-256.43 190.04,-246.18 181.57,-252.53 187.38,-256.43"/>
<text text-anchor="middle" x="179.89" y="-268.79" font-family="Times New Roman,serif" font-size="14.00">b</text>
</g>
<!-- {&#39;q2&#39;}&#45;&gt;{&#39;q3&#39;} -->
<g id="edge6" class="edge">
<title>{&#39;q2&#39;}&#45;&gt;{&#39;q3&#39;}</title>
<path fill="none" stroke="black" d="M165.74,-125.28C155.3,-111.77 139.83,-91.75 126.3,-74.24"/>
<polygon fill="black" stroke="black" points="128.73,-71.66 119.84,-65.89 123.19,-75.94 128.73,-71.66"/>
<text text-anchor="middle" x="153.39" y="-94.79" font-family="Times New Roman,serif" font-size="14.00">c</text>
</g>
<!-- {&#39;q3&#39;}&#45;&gt;{&#39;q3&#39;} -->
<g id="edge13" class="edge">
<title>{&#39;q3&#39;}&#45;&gt;{&#39;q3&#39;}</title>
<path fill="none" stroke="black" d="M132.75,-47.74C143.73,-47.57 152.39,-43.82 152.39,-36.5 152.39,-31.69 148.66,-28.42 142.99,-26.7"/>
<polygon fill="black" stroke="black" points="143.14,-23.18 132.75,-25.25 142.16,-30.12 143.14,-23.18"/>
<text text-anchor="middle" x="155.89" y="-32.8" font-family="Times New Roman,serif" font-size="14.00">c</text>
</g>
<!-- {&#39;q1&#39;}&#45;&gt;{&#39;q2&#39;} -->
<g id="edge14" class="edge">
<title>{&#39;q1&#39;}&#45;&gt;{&#39;q2&#39;}</title>
<path fill="none" stroke="black" d="M196.24,-210.79C193.04,-198.96 188.73,-183.02 185.09,-169.57"/>
<polygon fill="black" stroke="black" points="188.45,-168.62 182.46,-159.88 181.7,-170.45 188.45,-168.62"/>
<text text-anchor="middle" x="194.39" y="-181.79" font-family="Times New Roman,serif" font-size="14.00">a</text>
</g>
<!-- {&#39;q1&#39;}&#45;&gt;{&#39;q1&#39;} -->
<g id="edge15" class="edge">
<title>{&#39;q1&#39;}&#45;&gt;{&#39;q1&#39;}</title>
<path fill="none" stroke="black" d="M230.21,-236.83C241.75,-237.23 251.39,-234.61 251.39,-228.99 251.39,-225.13 246.83,-222.69 240.23,-221.67"/>
<polygon fill="black" stroke="black" points="240.37,-218.17 230.21,-221.16 240.02,-225.16 240.37,-218.17"/>
<text text-anchor="middle" x="255.39" y="-225.29" font-family="Times New Roman,serif" font-size="14.00">b</text>
</g>
<!-- {&#39;q2&#39;, &#39;q1&#39;, &#39;q0&#39;} -->
<g id="node6" class="node">
<title>{&#39;q2&#39;, &#39;q1&#39;, &#39;q0&#39;}</title>
<ellipse fill="none" stroke="black" cx="68.89" cy="-402.99" rx="68.79" ry="18"/>
<text text-anchor="middle" x="68.89" y="-399.29" font-family="Times New Roman,serif" font-size="14.00">{&#39;q2&#39;, &#39;q1&#39;, &#39;q0&#39;}</text>
</g>
<!-- {&#39;q2&#39;, &#39;q1&#39;, &#39;q0&#39;}&#45;&gt;{&#39;q2&#39;, &#39;q1&#39;} -->
<g id="edge9" class="edge">
<title>{&#39;q2&#39;, &#39;q1&#39;, &#39;q0&#39;}&#45;&gt;{&#39;q2&#39;, &#39;q1&#39;}</title>
<path fill="none" stroke="black" d="M83.71,-385.2C94.77,-372.66 110.06,-355.34 122.45,-341.3"/>
<polygon fill="black" stroke="black" points="125.37,-343.28 129.36,-333.46 120.12,-338.65 125.37,-343.28"/>
<text text-anchor="middle" x="114.89" y="-355.79" font-family="Times New Roman,serif" font-size="14.00">b</text>
</g>
<!-- {&#39;q2&#39;, &#39;q1&#39;, &#39;q0&#39;}&#45;&gt;{&#39;q3&#39;} -->
<g id="edge7" class="edge">
<title>{&#39;q2&#39;, &#39;q1&#39;, &#39;q0&#39;}&#45;&gt;{&#39;q3&#39;}</title>
<path fill="none" stroke="black" d="M66,-384.79C63.37,-367.66 59.89,-340.59 59.89,-316.99 59.89,-316.99 59.89,-316.99 59.89,-140.99 59.89,-119.22 67.4,-96.35 75.74,-77.67"/>
<polygon fill="black" stroke="black" points="78.92,-79.12 80.01,-68.58 72.59,-76.15 78.92,-79.12"/>
<text text-anchor="middle" x="63.39" y="-225.29" font-family="Times New Roman,serif" font-size="14.00">c</text>
</g>
<!-- {&#39;q2&#39;, &#39;q1&#39;, &#39;q0&#39;}&#45;&gt;{&#39;q2&#39;, &#39;q1&#39;, &#39;q0&#39;} -->
<g id="edge8" class="edge">
<title>{&#39;q2&#39;, &#39;q1&#39;, &#39;q0&#39;}&#45;&gt;{&#39;q2&#39;, &#39;q1&#39;, &#39;q0&#39;}</title>
<path fill="none" stroke="black" d="M131.38,-410.68C145.48,-409.98 155.79,-407.42 155.79,-402.99 155.79,-399.71 150.11,-397.45 141.42,-396.22"/>
<polygon fill="black" stroke="black" points="141.66,-392.73 131.38,-395.31 141.03,-399.7 141.66,-392.73"/>
<text text-anchor="middle" x="159.29" y="-399.29" font-family="Times New Roman,serif" font-size="14.00">a</text>
</g>
<!-- {&#39;q1&#39;, &#39;q0&#39;} -->
<g id="node7" class="node">
<title>{&#39;q1&#39;, &#39;q0&#39;}</title>
<ellipse fill="none" stroke="black" cx="198.89" cy="-489.99" rx="50.89" ry="18"/>
<text text-anchor="middle" x="198.89" y="-486.29" font-family="Times New Roman,serif" font-size="14.00">{&#39;q1&#39;, &#39;q0&#39;}</text>
</g>
<!-- {&#39;q1&#39;, &#39;q0&#39;}&#45;&gt;{&#39;q2&#39;, &#39;q1&#39;} -->
<g id="edge5" class="edge">
<title>{&#39;q1&#39;, &#39;q0&#39;}&#45;&gt;{&#39;q2&#39;, &#39;q1&#39;}</title>
<path fill="none" stroke="black" d="M195.2,-471.85C190.55,-451.07 181.94,-415.07 171.89,-384.99 167.2,-370.95 161.01,-355.67 155.65,-343.16"/>
<polygon fill="black" stroke="black" points="158.77,-341.57 151.57,-333.8 152.36,-344.36 158.77,-341.57"/>
<text text-anchor="middle" x="186.89" y="-399.29" font-family="Times New Roman,serif" font-size="14.00">b</text>
</g>
<!-- {&#39;q1&#39;, &#39;q0&#39;}&#45;&gt;{&#39;q2&#39;, &#39;q1&#39;, &#39;q0&#39;} -->
<g id="edge4" class="edge">
<title>{&#39;q1&#39;, &#39;q0&#39;}&#45;&gt;{&#39;q2&#39;, &#39;q1&#39;, &#39;q0&#39;}</title>
<path fill="none" stroke="black" d="M175.65,-473.8C155.06,-460.33 124.77,-440.53 101.71,-425.45"/>
<polygon fill="black" stroke="black" points="103.54,-422.47 93.26,-419.92 99.71,-428.33 103.54,-422.47"/>
<text text-anchor="middle" x="145.39" y="-442.79" font-family="Times New Roman,serif" font-size="14.00">a</text>
</g>
<!-- {&#39;q0&#39;}&#45;&gt;{&#39;q2&#39;} -->
<g id="edge3" class="edge">
<title>{&#39;q0&#39;}&#45;&gt;{&#39;q2&#39;}</title>
<path fill="none" stroke="black" d="M260.23,-560.06C271.66,-543.68 286.89,-516.97 286.89,-490.99 286.89,-490.99 286.89,-490.99 286.89,-227.99 286.89,-190.81 246.95,-167.49 215.42,-154.88"/>
<polygon fill="black" stroke="black" points="216.56,-151.57 205.96,-151.31 214.08,-158.12 216.56,-151.57"/>
<text text-anchor="middle" x="290.89" y="-355.79" font-family="Times New Roman,serif" font-size="14.00">b</text>
</g>
<!-- {&#39;q0&#39;}&#45;&gt;{&#39;q1&#39;, &#39;q0&#39;} -->
<g id="edge2" class="edge">
<title>{&#39;q0&#39;}&#45;&gt;{&#39;q1&#39;, &#39;q0&#39;}</title>
<path fill="none" stroke="black" d="M238.45,-559.61C231.42,-547.42 221.7,-530.55 213.65,-516.59"/>
<polygon fill="black" stroke="black" points="216.67,-514.83 208.65,-507.91 210.61,-518.33 216.67,-514.83"/>
<text text-anchor="middle" x="230.39" y="-529.79" font-family="Times New Roman,serif" font-size="14.00">a</text>
</g>
</g>
</svg>
