<?xml version="1.0" encoding="UTF-8" standalone="no"?>
<!DOCTYPE svg PUBLIC "-//W3C//DTD SVG 1.1//EN"
 "http://www.w3.org/Graphics/SVG/1.1/DTD/svg11.dtd">
<!-- Generated by graphviz version 2.46.1 (20210213.1702)
 -->
<!-- Pages: 1 -->
<svg width="304pt" height="676pt"
 viewBox="0.00 0.00 304.39 675.99" xmlns="http://www.w3.org/2000/svg" xmlns:xlink="http://www.w3.org/1999/xlink">
<g id="graph0" class="graph" transform="scale(1 1) rotate(0) translate(4 671.99)">
<polygon fill="white" stroke="transparent" points="-4,4 -4,-671.99 300.39,-671.99 300.39,4 -4,4"/>
<!-- fake -->
<g id="node1" class="node">
<title>fake</title>
</g>
<!-- {&#39;q0&#39;} -->
<g id="node3" class="node">
<title>{&#39;q0&#39;}</title>
<ellipse fill="none" stroke="black" cx="32.5" cy="-576.99" rx="32.49" ry="18"/>
<text text-anchor="middle" x="32.5" y="-573.29" font-family="Times New Roman,serif" font-size="14.00">{&#39;q0&#39;}</text>
</g>
<!-- fake&#45;&gt;{&#39;q0&#39;} -->
<g id="edge1" class="edge">
<title>fake&#45;&gt;{&#39;q0&#39;}</title>
<path fill="none" stroke="black" stroke-width="2" d="M32.5,-631.81C32.5,-623.78 32.5,-614.04 32.5,-605.06"/>
<polygon fill="black" stroke="black" stroke-width="2" points="36,-605.02 32.5,-595.02 29,-605.02 36,-605.02"/>
</g>
<!-- {&#39;q2&#39;} -->
<g id="node2" class="node">
<title>{&#39;q2&#39;}</title>
<ellipse fill="none" stroke="black" cx="79.5" cy="-141.99" rx="32.49" ry="18"/>
<text text-anchor="middle" x="79.5" y="-138.29" font-family="Times New Roman,serif" font-size="14.00">{&#39;q2&#39;}</text>
</g>
<!-- {&#39;q3&#39;} -->
<g id="node7" class="node">
<title>{&#39;q3&#39;}</title>
<ellipse fill="none" stroke="black" cx="205.5" cy="-36.5" rx="32.49" ry="32.49"/>
<ellipse fill="none" stroke="black" cx="205.5" cy="-36.5" rx="36.49" ry="36.49"/>
<text text-anchor="middle" x="205.5" y="-32.8" font-family="Times New Roman,serif" font-size="14.00">{&#39;q3&#39;}</text>
</g>
<!-- {&#39;q2&#39;}&#45;&gt;{&#39;q3&#39;} -->
<g id="edge6" class="edge">
<title>{&#39;q2&#39;}&#45;&gt;{&#39;q3&#39;}</title>
<path fill="none" stroke="black" d="M97.02,-126.6C115.73,-111.23 145.9,-86.45 169.68,-66.92"/>
<polygon fill="black" stroke="black" points="171.97,-69.57 177.47,-60.51 167.53,-64.16 171.97,-69.57"/>
<text text-anchor="middle" x="142" y="-94.79" font-family="Times New Roman,serif" font-size="14.00">c</text>
</g>
<!-- {&#39;q0&#39;}&#45;&gt;{&#39;q2&#39;} -->
<g id="edge3" class="edge">
<title>{&#39;q0&#39;}&#45;&gt;{&#39;q2&#39;}</title>
<path fill="none" stroke="black" d="M27.35,-558.92C22.67,-541.88 16.5,-514.87 16.5,-490.99 16.5,-490.99 16.5,-490.99 16.5,-227.99 16.5,-202.03 35.7,-178.82 52.91,-163.25"/>
<polygon fill="black" stroke="black" points="55.29,-165.81 60.6,-156.64 50.73,-160.5 55.29,-165.81"/>
<text text-anchor="middle" x="20.5" y="-355.79" font-family="Times New Roman,serif" font-size="14.00">b</text>
</g>
<!-- {&#39;q1&#39;, &#39;q0&#39;} -->
<g id="node4" class="node">
<title>{&#39;q1&#39;, &#39;q0&#39;}</title>
<ellipse fill="none" stroke="black" cx="107.5" cy="-489.99" rx="50.89" ry="18"/>
<text text-anchor="middle" x="107.5" y="-486.29" font-family="Times New Roman,serif" font-size="14.00">{&#39;q1&#39;, &#39;q0&#39;}</text>
</g>
<!-- {&#39;q0&#39;}&#45;&gt;{&#39;q1&#39;, &#39;q0&#39;} -->
<g id="edge2" class="edge">
<title>{&#39;q0&#39;}&#45;&gt;{&#39;q1&#39;, &#39;q0&#39;}</title>
<path fill="none" stroke="black" d="M46.25,-560.4C57.46,-547.71 73.46,-529.56 86.3,-515.01"/>
<polygon fill="black" stroke="black" points="89.07,-517.17 93.06,-507.35 83.82,-512.54 89.07,-517.17"/>
<text text-anchor="middle" x="78" y="-529.79" font-family="Times New Roman,serif" font-size="14.00">a</text>
</g>
<!-- {&#39;q1&#39;, &#39;q2&#39;, &#39;q0&#39;} -->
<g id="node6" class="node">
<title>{&#39;q1&#39;, &#39;q2&#39;, &#39;q0&#39;}</title>
<ellipse fill="none" stroke="black" cx="202.5" cy="-402.99" rx="68.79" ry="18"/>
<text text-anchor="middle" x="202.5" y="-399.29" font-family="Times New Roman,serif" font-size="14.00">{&#39;q1&#39;, &#39;q2&#39;, &#39;q0&#39;}</text>
</g>
<!-- {&#39;q1&#39;, &#39;q0&#39;}&#45;&gt;{&#39;q1&#39;, &#39;q2&#39;, &#39;q0&#39;} -->
<g id="edge4" class="edge">
<title>{&#39;q1&#39;, &#39;q0&#39;}&#45;&gt;{&#39;q1&#39;, &#39;q2&#39;, &#39;q0&#39;}</title>
<path fill="none" stroke="black" d="M125.37,-473.01C139.78,-460.11 160.25,-441.8 176.48,-427.27"/>
<polygon fill="black" stroke="black" points="178.94,-429.77 184.06,-420.49 174.27,-424.55 178.94,-429.77"/>
<text text-anchor="middle" x="164" y="-442.79" font-family="Times New Roman,serif" font-size="14.00">a</text>
</g>
<!-- {&#39;q1&#39;, &#39;q2&#39;} -->
<g id="node8" class="node">
<title>{&#39;q1&#39;, &#39;q2&#39;}</title>
<ellipse fill="none" stroke="black" cx="119.5" cy="-315.99" rx="50.89" ry="18"/>
<text text-anchor="middle" x="119.5" y="-312.29" font-family="Times New Roman,serif" font-size="14.00">{&#39;q1&#39;, &#39;q2&#39;}</text>
</g>
<!-- {&#39;q1&#39;, &#39;q0&#39;}&#45;&gt;{&#39;q1&#39;, &#39;q2&#39;} -->
<g id="edge5" class="edge">
<title>{&#39;q1&#39;, &#39;q0&#39;}&#45;&gt;{&#39;q1&#39;, &#39;q2&#39;}</title>
<path fill="none" stroke="black" d="M108.69,-471.87C110.78,-442 115.09,-380.11 117.59,-344.27"/>
<polygon fill="black" stroke="black" points="121.1,-344.27 118.31,-334.05 114.12,-343.78 121.1,-344.27"/>
<text text-anchor="middle" x="118.5" y="-399.29" font-family="Times New Roman,serif" font-size="14.00">b</text>
</g>
<!-- {&#39;q1&#39;} -->
<g id="node5" class="node">
<title>{&#39;q1&#39;}</title>
<ellipse fill="none" stroke="black" cx="119.5" cy="-228.99" rx="32.49" ry="18"/>
<text text-anchor="middle" x="119.5" y="-225.29" font-family="Times New Roman,serif" font-size="14.00">{&#39;q1&#39;}</text>
</g>
<!-- {&#39;q1&#39;}&#45;&gt;{&#39;q2&#39;} -->
<g id="edge14" class="edge">
<title>{&#39;q1&#39;}&#45;&gt;{&#39;q2&#39;}</title>
<path fill="none" stroke="black" d="M111.59,-211.2C105.95,-199.21 98.25,-182.85 91.81,-169.15"/>
<polygon fill="black" stroke="black" points="94.81,-167.31 87.38,-159.75 88.47,-170.29 94.81,-167.31"/>
<text text-anchor="middle" x="105" y="-181.79" font-family="Times New Roman,serif" font-size="14.00">a</text>
</g>
<!-- {&#39;q1&#39;}&#45;&gt;{&#39;q1&#39;} -->
<g id="edge15" class="edge">
<title>{&#39;q1&#39;}&#45;&gt;{&#39;q1&#39;}</title>
<path fill="none" stroke="black" d="M148.81,-236.83C160.35,-237.23 169.99,-234.61 169.99,-228.99 169.99,-225.13 165.44,-222.69 158.84,-221.67"/>
<polygon fill="black" stroke="black" points="158.97,-218.17 148.81,-221.16 158.62,-225.16 158.97,-218.17"/>
<text text-anchor="middle" x="173.99" y="-225.29" font-family="Times New Roman,serif" font-size="14.00">b</text>
</g>
<!-- {&#39;q1&#39;, &#39;q2&#39;, &#39;q0&#39;}&#45;&gt;{&#39;q1&#39;, &#39;q2&#39;, &#39;q0&#39;} -->
<g id="edge7" class="edge">
<title>{&#39;q1&#39;, &#39;q2&#39;, &#39;q0&#39;}&#45;&gt;{&#39;q1&#39;, &#39;q2&#39;, &#39;q0&#39;}</title>
<path fill="none" stroke="black" d="M264.98,-410.68C279.08,-409.98 289.39,-407.42 289.39,-402.99 289.39,-399.71 283.71,-397.45 275.02,-396.22"/>
<polygon fill="black" stroke="black" points="275.26,-392.73 264.98,-395.31 274.63,-399.7 275.26,-392.73"/>
<text text-anchor="middle" x="292.89" y="-399.29" font-family="Times New Roman,serif" font-size="14.00">a</text>
</g>
<!-- {&#39;q1&#39;, &#39;q2&#39;, &#39;q0&#39;}&#45;&gt;{&#39;q3&#39;} -->
<g id="edge9" class="edge">
<title>{&#39;q1&#39;, &#39;q2&#39;, &#39;q0&#39;}&#45;&gt;{&#39;q3&#39;}</title>
<path fill="none" stroke="black" d="M219.09,-385.38C233.3,-369.32 251.5,-343.57 251.5,-316.99 251.5,-316.99 251.5,-316.99 251.5,-140.99 251.5,-118.01 241.91,-94.44 231.49,-75.61"/>
<polygon fill="black" stroke="black" points="234.4,-73.66 226.34,-66.77 228.35,-77.18 234.4,-73.66"/>
<text text-anchor="middle" x="255" y="-225.29" font-family="Times New Roman,serif" font-size="14.00">c</text>
</g>
<!-- {&#39;q1&#39;, &#39;q2&#39;, &#39;q0&#39;}&#45;&gt;{&#39;q1&#39;, &#39;q2&#39;} -->
<g id="edge8" class="edge">
<title>{&#39;q1&#39;, &#39;q2&#39;, &#39;q0&#39;}&#45;&gt;{&#39;q1&#39;, &#39;q2&#39;}</title>
<path fill="none" stroke="black" d="M186.1,-385.2C173.66,-372.46 156.41,-354.79 142.58,-340.63"/>
<polygon fill="black" stroke="black" points="144.79,-337.89 135.3,-333.18 139.78,-342.78 144.79,-337.89"/>
<text text-anchor="middle" x="169.5" y="-355.79" font-family="Times New Roman,serif" font-size="14.00">b</text>
</g>
<!-- {&#39;q3&#39;}&#45;&gt;{&#39;q3&#39;} -->
<g id="edge13" class="edge">
<title>{&#39;q3&#39;}&#45;&gt;{&#39;q3&#39;}</title>
<path fill="none" stroke="black" d="M240.35,-47.74C251.33,-47.57 259.99,-43.82 259.99,-36.5 259.99,-31.69 256.26,-28.42 250.6,-26.7"/>
<polygon fill="black" stroke="black" points="250.74,-23.18 240.35,-25.25 249.77,-30.12 250.74,-23.18"/>
<text text-anchor="middle" x="263.49" y="-32.8" font-family="Times New Roman,serif" font-size="14.00">c</text>
</g>
<!-- {&#39;q1&#39;, &#39;q2&#39;}&#45;&gt;{&#39;q2&#39;} -->
<g id="edge10" class="edge">
<title>{&#39;q1&#39;, &#39;q2&#39;}&#45;&gt;{&#39;q2&#39;}</title>
<path fill="none" stroke="black" d="M103.59,-298.72C92.19,-285.86 77.79,-266.83 71.5,-246.99 63.48,-221.74 67.24,-191.39 71.93,-170.01"/>
<polygon fill="black" stroke="black" points="75.4,-170.56 74.34,-160.02 68.6,-168.92 75.4,-170.56"/>
<text text-anchor="middle" x="75" y="-225.29" font-family="Times New Roman,serif" font-size="14.00">a</text>
</g>
<!-- {&#39;q1&#39;, &#39;q2&#39;}&#45;&gt;{&#39;q1&#39;} -->
<g id="edge11" class="edge">
<title>{&#39;q1&#39;, &#39;q2&#39;}&#45;&gt;{&#39;q1&#39;}</title>
<path fill="none" stroke="black" d="M119.5,-297.79C119.5,-286.16 119.5,-270.54 119.5,-257.23"/>
<polygon fill="black" stroke="black" points="123,-257.17 119.5,-247.17 116,-257.17 123,-257.17"/>
<text text-anchor="middle" x="123.5" y="-268.79" font-family="Times New Roman,serif" font-size="14.00">b</text>
</g>
<!-- {&#39;q1&#39;, &#39;q2&#39;}&#45;&gt;{&#39;q3&#39;} -->
<g id="edge12" class="edge">
<title>{&#39;q1&#39;, &#39;q2&#39;}&#45;&gt;{&#39;q3&#39;}</title>
<path fill="none" stroke="black" d="M141.31,-299.51C156.79,-287.19 176.53,-268.49 186.5,-246.99 210.75,-194.7 212.32,-127.25 209.96,-83.21"/>
<polygon fill="black" stroke="black" points="213.44,-82.85 209.32,-73.09 206.45,-83.29 213.44,-82.85"/>
<text text-anchor="middle" x="209" y="-181.79" font-family="Times New Roman,serif" font-size="14.00">c</text>
</g>
</g>
</svg>
